<svg 
 xmlns="http://www.w3.org/2000/svg"
 xmlns:xlink="http://www.w3.org/1999/xlink"
 width="1.129cm" height="1.023cm">
<path fill-rule="evenodd"  fill="rgb(34, 34, 34)"
 d="M31.899,7.565 L26.493,19.977 C26.296,20.410 25.882,20.686 25.409,20.686 L10.554,20.686 C10.021,20.686 9.548,20.331 9.410,19.819 L4.577,2.364 L1.184,2.364 C0.533,2.364 -0.000,1.832 -0.000,1.182 C-0.000,0.532 0.533,-0.000 1.184,-0.000 L5.464,-0.000 C5.997,-0.000 6.471,0.354 6.609,0.867 L11.442,18.322 L24.620,18.322 L28.999,8.274 L14.401,8.274 C13.750,8.274 13.217,7.742 13.217,7.092 C13.217,6.442 13.750,5.910 14.401,5.910 L30.814,5.910 C31.208,5.910 31.583,6.107 31.800,6.442 C32.017,6.777 32.057,7.191 31.899,7.565 ZM9.429,23.641 C10.909,23.641 12.112,24.843 12.112,26.320 C12.112,27.798 10.909,29.000 9.429,29.000 C7.950,29.000 6.747,27.798 6.747,26.320 C6.747,24.843 7.950,23.641 9.429,23.641 ZM26.020,23.641 C27.500,23.543 28.782,24.666 28.881,26.124 C28.920,26.852 28.703,27.542 28.230,28.074 C27.756,28.626 27.105,28.941 26.395,29.000 C26.336,29.000 26.257,29.000 26.198,29.000 C24.797,29.000 23.633,27.897 23.535,26.498 C23.436,25.040 24.541,23.740 26.020,23.641 Z"/>
</svg>