<svg xmlns="http://www.w3.org/2000/svg" width="26" height="24" viewBox="0 0 26 24">
  <defs>
    <style>
      .cls-1 {
        fill: #ef5b70;
        fill-rule: evenodd;
      }
    </style>
  </defs>
  <path id="Forma_1_copy" data-name="Forma 1 copy" class="cls-1" d="M739.961,1560.96h2.757l3.927,14.44a0.96,0.96,0,0,0,.93.72h12.069a0.965,0.965,0,0,0,.882-0.59l4.392-10.27a1,1,0,0,0-.081-0.93,0.942,0.942,0,0,0-.8-0.44H750.7a0.98,0.98,0,0,0,0,1.96h11.861L759,1574.16H748.3l-3.927-14.44a0.96,0.96,0,0,0-.929-0.72h-3.479A0.98,0.98,0,0,0,739.961,1560.96Zm6.7,22.04a2.22,2.22,0,1,0-2.18-2.22A2.205,2.205,0,0,0,746.661,1583Zm13.624,0h0.161a2.155,2.155,0,0,0,1.49-.77,2.229,2.229,0,0,0,.529-1.61A2.178,2.178,0,1,0,760.285,1583Z" transform="translate(-739 -1559)"/>
</svg>
